<svg width="112.000000" height="16.000000" viewBox="0 0 112 16" fill="none" xmlns="http://www.w3.org/2000/svg" xmlns:xlink="http://www.w3.org/1999/xlink">
	<desc>
			Created with Pixso.
	</desc>
	<defs>
		<clipPath id="clip18_6103">
			<rect id="grade" width="16.000000" height="16.000000" fill="white" fill-opacity="0"/>
		</clipPath>
		<clipPath id="clip18_6107">
			<rect id="grade" width="16.000000" height="16.000000" transform="translate(24.000000 0.000000)" fill="white" fill-opacity="0"/>
		</clipPath>
		<clipPath id="clip18_6111">
			<rect id="grade" width="16.000000" height="16.000000" transform="translate(48.000000 0.000000)" fill="white" fill-opacity="0"/>
		</clipPath>
		<clipPath id="clip18_6115">
			<rect id="grade" width="16.000000" height="16.000000" transform="translate(72.000000 0.000000)" fill="white" fill-opacity="0"/>
		</clipPath>
		<clipPath id="clip18_6118">
			<rect id="grade" width="16.000000" height="16.000000" transform="translate(96.000000 0.000000)" fill="white" fill-opacity="0"/>
		</clipPath>
	</defs>
	<rect id="Component 15" width="112.000000" height="16.000000" fill="#FFFFFF" fill-opacity="0"/>
	<g clip-path="url(#clip18_6103)">
		<path id="Vector" d="M8 11.5134L12.12 14.0001L11.0267 9.31335L14.6667 6.16003L9.87341 5.75336L8 1.33337L6.12671 5.75336L1.33337 6.16003L4.97339 9.31335L3.88 14.0001L8 11.5134Z" fill="#FFCE39" fill-opacity="1.000000" fill-rule="nonzero"/>
	</g>
	<g clip-path="url(#clip18_6107)">
		<path id="Vector" d="M32 11.5134L36.1201 14.0001L35.0267 9.31335L38.6667 6.16003L33.8734 5.75336L32 1.33337L30.1267 5.75336L25.3334 6.16003L28.9734 9.31335L27.88 14.0001L32 11.5134Z" fill="#FFCE39" fill-opacity="1.000000" fill-rule="nonzero"/>
	</g>
	<g clip-path="url(#clip18_6111)">
		<path id="Vector" d="M56 11.5134L60.12 14.0001L59.0267 9.31335L62.6666 6.16003L57.8733 5.75336L56 1.33337L54.1266 5.75336L49.3333 6.16003L52.9733 9.31335L51.88 14.0001L56 11.5134Z" fill="#FFCE39" fill-opacity="1.000000" fill-rule="nonzero"/>
	</g>
	<g clip-path="url(#clip18_6115)">
		<path id="Vector" d="M80 11.5134L84.12 14.0001L83.0267 9.31335L86.6666 6.16003L81.8733 5.75336L80 1.33337L78.1266 5.75336L73.3333 6.16003L76.9733 9.31335L75.88 14.0001L80 11.5134Z" fill="#FFCE39" fill-opacity="1.000000" fill-rule="nonzero"/>
	</g>
	<g clip-path="url(#clip18_6118)">
		<path id="Vector" d="M104 11.5134L108.12 14.0001L107.027 9.31335L110.667 6.16003L105.873 5.75336L104 1.33337L102.127 5.75336L97.3334 6.16003L100.973 9.31335L99.8801 14.0001L104 11.5134Z" fill="#FFCE39" fill-opacity="1.000000" fill-rule="nonzero"/>
	</g>
</svg>
