<svg width="17.000000" height="24.000000" viewBox="0 0 17 24" fill="none" xmlns="http://www.w3.org/2000/svg" xmlns:xlink="http://www.w3.org/1999/xlink">
	<desc>
			Created with Pixso.
	</desc>
	<defs>
		<clipPath id="clip18_9122">
			<rect id="uzcard 1" width="17.000000" height="24.000000" fill="white" fill-opacity="0"/>
		</clipPath>
	</defs>
	<rect id="uzcard 1" width="17.000000" height="24.000000" fill="#FFFFFF" fill-opacity="0"/>
	<g clip-path="url(#clip18_9122)">
		<path id="path2" d="M16.0215 7.53418L10.8438 7.53418L10.8438 0.45166C10.8438 0.214844 11.0391 0.0205078 11.2764 0.0205078L12.0518 0.0205078C12.0537 1.18115 12.5176 2.29395 13.3418 3.11572C14.1689 3.93701 15.2871 4.39844 16.4541 4.39844L16.4541 7.53418L16.0215 7.53418ZM16.4541 10.0347C16.4541 12.9883 15.7764 15.1895 14.4209 16.624C13.0654 18.0586 10.9717 18.7744 8.14941 18.7744C5.51074 18.7744 3.50977 18.0586 2.14551 16.624C0.78125 15.1895 0.0996094 13.0273 0.0996094 10.1348L0.0996094 0.432129C0.0996094 0.206055 0.28418 0.0205078 0.512695 0.0205078L5.2959 0.0205078C5.52344 0.0224609 5.70996 0.206055 5.70996 0.432129L5.70996 10.3472C5.70996 11.5269 5.92969 12.437 6.375 13.0767C7.06543 13.9863 8.2998 14.2905 9.33398 13.8062C9.66797 13.6489 9.96094 13.4194 10.1914 13.1348C10.6279 12.5322 10.8438 11.6475 10.8438 10.4741L10.8438 8.61914L16.4541 8.61914L16.4541 10.0347Z" fill="#1F3E79" fill-opacity="1.000000" fill-rule="evenodd"/>
		<path id="path4" d="M13.1562 0.0205078L16.0215 0.0205078C16.2607 0.0205078 16.4541 0.214844 16.4541 0.45166L16.4541 3.30859C14.6338 3.30859 13.1562 1.83838 13.1562 0.0239258L13.1562 0.0205078Z" fill="#F4821F" fill-opacity="1.000000" fill-rule="evenodd"/>
		<path id="path7" d="M1.03809 23.4883C1.67188 23.4883 1.97656 23.1362 1.97656 22.6206L1.97656 21.3789L1.52441 21.3789L1.52441 22.6079C1.52441 23.2568 0.547852 23.2568 0.547852 22.6079L0.547852 21.3789L0.0996094 21.3789L0.0996094 22.6245C0.0996094 23.1333 0.405273 23.4883 1.03809 23.4883ZM4.71191 23.4492L4.71191 23.062L3.70801 23.062L4.69141 21.7319L4.69141 21.3789L3.12793 21.3789L3.12793 21.7671L4.11133 21.7671L3.12793 23.0928L3.12793 23.4492L4.71191 23.4492ZM6.8291 23.4883C7.19238 23.4951 7.5293 23.2993 7.7002 22.9775L7.31738 22.7954C7.22363 22.9775 7.03516 23.0942 6.82715 23.0962C6.24316 23.0679 5.96289 22.3696 6.36621 21.9473C6.48633 21.8203 6.65332 21.7441 6.82715 21.7358C7.03516 21.7393 7.22363 21.8555 7.31738 22.0376L7.7002 21.8506C7.5293 21.5308 7.19238 21.3345 6.8291 21.3447C6.04688 21.3223 5.50195 22.1138 5.80469 22.833C5.97949 23.2407 6.38574 23.5005 6.8291 23.4883ZM10.6982 23.4492L9.89648 21.3789L9.34277 21.3789L8.53711 23.4492L9.04297 23.4492L9.17285 23.0991L10.0664 23.0991L10.1953 23.4492L10.6982 23.4492ZM9.94434 22.7109L9.29492 22.7109L9.62012 21.8203L9.94434 22.7109ZM13.6895 23.9702L12.9268 22.6616C13.207 22.5942 13.3984 22.3345 13.3809 22.0483C13.3955 21.6616 13.0693 21.3486 12.6816 21.3804L11.708 21.3804L11.708 23.4512L12.1514 23.4512L12.1514 22.7144L12.4766 22.7144L13.1807 23.9688L13.6885 23.9702L13.6895 23.9702ZM12.6162 22.3271L12.1533 22.3271L12.1533 21.769L12.6162 21.769C12.7832 21.7495 12.9307 21.8784 12.9307 22.0483C12.9307 22.2158 12.7832 22.3467 12.6162 22.3271ZM15.3525 23.4512C16.0039 23.4512 16.4561 23.041 16.4561 22.4175C16.4561 21.792 16.0039 21.3804 15.3525 21.3804L14.5303 21.3804L14.5303 23.4512L15.3525 23.4512ZM15.3525 23.062L14.9746 23.062L14.9746 21.769L15.3525 21.769C15.7217 21.7407 16.0303 22.0483 16.0039 22.4175C16.0195 22.7812 15.7158 23.0815 15.3506 23.062L15.3525 23.062ZM16.9932 21.3398L16.9932 21.3447C16.9932 21.6895 16.5762 21.8608 16.333 21.6191C16.0898 21.375 16.2627 20.96 16.6064 20.96L16.9932 20.96L16.9932 21.3398Z" fill="#1F3E79" fill-opacity="1.000000" fill-rule="evenodd"/>
	</g>
</svg>
